<svg width="282" height="187" viewBox="0 0 282 187" fill="none" xmlns="http://www.w3.org/2000/svg">
<path d="M80.2548 14.5107C80.2548 14.5107 88.0736 12.8493 89.5308 9.75199C90.9876 6.65199 76.1846 10.0573 76.1846 10.0573L80.2548 14.5107Z" fill="#56597E"/>
<path d="M151.08 82.3787C151.08 82.3787 138.473 81.4986 135.648 77.5173C132.823 73.5373 140.359 66.9733 140.359 66.9733L149.616 68.6387L151.08 82.3787Z" fill="#F48462"/>
<path d="M138.639 64.3453C138.639 64.3453 115.671 63.2453 109.496 60.8493C103.321 58.452 94.123 71.308 94.123 71.308L97.7028 81.996C97.7028 81.996 111.965 85.084 125.356 83.8933C133.101 83.2053 140.873 77.484 140.873 77.484L138.639 64.3453Z" fill="#F48462"/>
<path d="M45.4759 146.952L36.6411 145.955L38.8718 126.203L48.7603 127.32L45.4759 146.952Z" fill="#F48462"/>
<path d="M126.145 101.613C126.145 101.613 144.993 105.543 142.968 126.303C140.717 149.373 103.727 154.949 77.5174 154.288C51.307 153.625 42.7007 151.779 42.7007 151.779V113.347H59.9137L126.145 101.613Z" fill="#474965"/>
<path d="M111.081 61.6627C111.081 61.6627 105.105 54.372 102.163 50.0907C99.2201 45.8093 94.4923 39.7854 88.0709 35.8747C81.6496 31.964 65.5971 29.9813 54.6277 37.1267C43.6585 44.272 38.5752 53.8974 36.7023 64.336C34.8288 74.772 36.7023 78.5187 36.7023 78.5187H68.4043L97.7028 79.588C97.7028 79.588 102.197 69.7654 111.081 61.6627Z" fill="#A1E887"/>
<path d="M79.3441 27.732V27.9454L79.1915 31.96L79.0858 35.108C79.0858 35.108 79.3591 35.8387 75.6935 35.6253C70.7815 35.3213 69.1847 33.2213 69.1847 33.2213L68.9258 25.8454L70.4164 26.12L79.3441 27.732Z" fill="#F48462"/>
<path d="M79.3436 27.9454L79.1911 31.96C76.804 31.6854 72.4535 30.6827 70.6744 26.94C70.5374 26.636 70.4468 26.364 70.416 26.1347L79.328 27.884L79.3436 27.9454Z" fill="black"/>
<path d="M80.7713 8.72403C80.7713 8.72403 85.4078 19.144 83.8021 25.0267C82.1958 30.9094 76.8406 30.0214 73.6322 28.9067C70.4239 27.7934 68.925 25.84 68.925 25.84C68.925 25.84 65.9421 26.8747 63.9234 24.1067C61.9046 21.34 63.115 18.1387 64.8172 17.396C66.5193 16.6534 68.5578 17.872 68.5578 17.872L66.9469 14.8454C66.9469 14.8454 73.5369 -0.634641 80.7713 8.72403Z" fill="#F48462"/>
<path d="M112.301 137.368V146.259H92.0942V136.308L112.301 137.368Z" fill="#F48462"/>
<path d="M91.792 172.249C92.9827 173.72 140.232 175.423 142.555 175.153C144.899 174.885 144.145 175.328 144.899 174.885C145.653 174.443 144.967 168.576 144.967 168.576C144.967 168.576 144.959 168.523 144.964 168.419C144.936 167.508 144.648 162.456 140.861 159.829C136.691 156.933 129.501 155.651 129.501 155.651C129.501 155.651 117.209 146.964 116.199 146.504C115.187 146.047 114.192 141.533 113.729 141.373C113.288 141.216 92.3968 141.595 91.1296 142.481C90.1764 143.144 90.3578 158.621 91.0119 167.005C91.2343 169.849 91.4978 171.879 91.792 172.249Z" fill="#A5C4F2"/>
<path d="M91.7923 172.249C92.983 173.72 140.232 175.423 142.555 175.153C144.899 174.885 144.146 175.328 144.899 174.885C145.654 174.443 144.967 168.576 144.967 168.576C144.967 168.576 144.959 168.523 144.964 168.419C137.032 168.405 115.759 168.273 102.404 167.611C97.7349 167.376 93.9923 167.176 91.0122 167.005C91.2346 169.849 91.4981 171.879 91.7923 172.249Z" fill="#4B4E6D"/>
<path d="M11.9508 120.421C10.3118 121.367 1.23311 167.767 1.13577 170.104C1.03417 172.46 0.714308 171.647 1.03417 172.46C1.35297 173.275 7.25498 173.515 7.25498 173.515C7.25498 173.515 7.30818 173.515 7.41018 173.536C8.31391 173.652 13.3492 174.159 16.5358 170.829C20.0492 167.164 22.4404 160.264 22.4404 160.264C22.4404 160.264 32.9456 149.484 33.5571 148.556C34.1686 147.629 38.7815 147.353 39.0112 146.921C39.2367 146.511 42.1331 125.817 41.4555 124.427C40.9492 123.383 25.6352 121.139 17.2524 120.472C14.4091 120.247 12.3628 120.188 11.9508 120.421Z" fill="#A5C4F2"/>
<path d="M11.9508 120.421C10.3118 121.367 1.23311 167.767 1.13577 170.104C1.03417 172.46 0.714308 171.647 1.03417 172.46C1.35297 173.275 7.25498 173.515 7.25498 173.515C7.25498 173.515 7.30818 173.515 7.41018 173.536C8.66484 165.704 12.1254 144.716 14.8706 131.629C15.8342 127.053 16.617 123.388 17.2524 120.472C14.4091 120.247 12.3628 120.188 11.9508 120.421Z" fill="#4B4E6D"/>
<path d="M120.72 139.915C120.72 139.915 135.593 97.6947 128.017 84.2227C120.44 70.752 65.9299 80.4987 65.9299 80.4987L40.8299 81.6973C40.8299 81.6973 35.7518 106.361 46.4163 113.22C57.0804 120.077 89.2663 117.664 89.2663 117.664L85.2804 139.915H120.72Z" fill="#4B4E6D"/>
<path d="M94.123 57.9453L92.0918 77.316L40.9355 84.672V70.4987L94.123 57.9453Z" fill="#F7B369"/>
<path d="M94.1232 79.4573C94.1232 79.4573 91.97 63.6946 90.0555 52.4946C88.141 41.2933 85.4044 34.58 85.4044 34.58C85.4044 34.58 83.0696 33.7493 82.005 33.5C80.9404 33.248 80.2727 33.1093 80.2727 33.1093L83.1091 54.5787L69.0754 54.9306L67.5295 32.6533C67.5295 32.6533 63.1519 33.136 61.9216 33.5506C60.6904 33.9653 60.6904 33.9653 60.6904 33.9653L62.8706 78.5186L63.9686 83.8933L94.1232 79.4573Z" fill="#4B4E6D"/>
<path d="M91.8175 84.672C91.8175 84.672 64.9254 80.0347 62.8706 78.5187C57.9878 74.9134 36.1191 76.2494 36.1191 76.2494C36.1191 76.2494 36.4347 88.4174 44.729 94.5707C53.0227 100.724 87.8102 96.712 87.8102 96.712L91.8175 84.672Z" fill="#F48462"/>
<path d="M62.8704 33.5507C62.8704 33.5507 49.3658 35.2534 42.2314 45.336C35.0966 55.42 33.6699 79.588 33.6699 79.588L62.8704 78.5187V33.5507Z" fill="#A1E887"/>
<path d="M80.1195 21.3973C80.0871 21.3973 80.0549 21.3934 80.0231 21.3827C79.8513 21.3307 79.7549 21.148 79.8081 20.976C80.3778 19.136 78.9975 17.136 78.9841 17.116C78.8805 16.9694 78.9163 16.7653 79.0633 16.6613C79.209 16.56 79.4133 16.5947 79.5163 16.7413C79.5814 16.8333 81.0961 19.0187 80.4305 21.1693C80.3877 21.308 80.2586 21.3973 80.1195 21.3973Z" fill="black"/>
<path d="M67.865 22.8427C67.7786 22.8427 67.6926 22.8094 67.628 22.7414L64.9004 19.8494C64.7764 19.7187 64.7832 19.5134 64.9139 19.3907C65.0442 19.2667 65.2494 19.272 65.3744 19.404L68.102 22.2947C68.2259 22.4254 68.2192 22.6307 68.0884 22.7547C68.0259 22.8147 67.9452 22.8427 67.865 22.8427Z" fill="black"/>
<path d="M64.9773 22.068C64.8196 22.068 64.6805 21.9533 64.656 21.792C64.6294 21.6147 64.7518 21.448 64.9294 21.42L66.8158 21.1347C66.9893 21.112 67.1601 21.2307 67.1872 21.408C67.2138 21.5853 67.0914 21.752 66.9138 21.7787L65.0268 22.0653C65.0106 22.068 64.9934 22.068 64.9773 22.068Z" fill="black"/>
<path d="M75.2951 22.62C75.5143 22.992 75.87 23.4387 76.4029 23.7054C76.9669 23.988 77.5529 23.7467 77.9393 23.5L75.2951 22.62ZM76.9451 24.4867C76.6768 24.4867 76.3956 24.4294 76.1107 24.288C74.82 23.6414 74.3935 22.2267 74.3757 22.1667C74.342 22.0507 74.3753 21.9254 74.4628 21.8414C74.5492 21.7574 74.6768 21.728 74.7915 21.7667L78.7169 23.0707C78.8232 23.1067 78.9044 23.1947 78.9305 23.3027C78.9576 23.4134 78.9253 23.528 78.8472 23.608C78.8033 23.652 77.9732 24.4867 76.9451 24.4867Z" fill="black"/>
<path d="M75.5695 17.652C75.4081 17.652 75.2679 17.532 75.2471 17.368L75.0081 15.4973C74.9851 15.3187 75.1117 15.156 75.2898 15.1333C75.4627 15.1067 75.6309 15.236 75.6538 15.4147L75.8929 17.2853C75.9153 17.464 75.7893 17.6267 75.6106 17.6493C75.5971 17.652 75.583 17.652 75.5695 17.652Z" fill="black"/>
<path d="M81.1228 17.2067C80.9639 17.2067 80.8253 17.0907 80.8015 16.928L80.5264 15.0627C80.5004 14.8853 80.6239 14.7187 80.8015 14.6933C80.9744 14.668 81.1447 14.788 81.1712 14.9667L81.4457 16.8333C81.4717 17.0107 81.3488 17.1773 81.1712 17.2027C81.1545 17.2053 81.1395 17.2067 81.1228 17.2067Z" fill="black"/>
<path d="M73.8262 14.0654C73.7762 14.0654 73.7247 14.0547 73.6773 14.0307C73.5174 13.948 73.4543 13.752 73.5366 13.5907C74.219 12.2654 75.8981 12.612 75.9715 12.6267C76.1466 12.664 76.2581 12.8387 76.221 13.0134C76.183 13.188 76.0153 13.3094 75.8341 13.264C75.7846 13.2534 74.5685 13.0094 74.1158 13.8894C74.0581 14.0014 73.9439 14.0654 73.8262 14.0654Z" fill="black"/>
<path d="M79.6935 13.1934C79.63 13.1934 79.5659 13.1747 79.5091 13.136C79.3607 13.036 79.3232 12.8334 79.4248 12.6827C79.7044 12.2747 80.0648 12.04 80.4956 11.9867C81.368 11.8867 82.1863 12.5934 82.2211 12.624C82.3549 12.7427 82.3675 12.948 82.2487 13.0827C82.13 13.216 81.9243 13.232 81.7893 13.112C81.6139 12.9587 81.0388 12.5734 80.5737 12.6347C80.3341 12.664 80.1347 12.8014 79.9628 13.052C79.8992 13.144 79.7972 13.1934 79.6935 13.1934Z" fill="black"/>
<path d="M68.5581 17.872C68.5581 17.872 70.4163 18.1347 71.5835 15.948C72.7893 13.6894 72.0029 10.5907 72.0029 10.5907C72.0029 10.5907 74.8909 11.3573 77.6023 10.1787C80.3133 9.00002 80.5423 8.43734 80.5423 8.43734L81.8081 11.3494C81.8081 11.3494 83.3497 6.43866 78.6142 4.69066C75.4199 3.512 74.6882 3.98933 74.6882 3.98933C74.6882 3.98933 66.2267 4.93333 64.0466 9.29467C61.8653 13.656 63.7163 18.3173 63.7163 18.3173C63.7163 18.3173 66.4095 17.1387 68.5581 17.872Z" fill="black"/>
<path d="M62.9068 78.1494C62.7292 78.1494 62.5833 78.0067 62.5812 77.828L62.5078 72.4453C62.5052 72.2653 62.6489 72.1174 62.8286 72.1147C63.0306 72.1027 63.1568 72.256 63.1588 72.436L63.2322 77.8187C63.2349 77.9987 63.0912 78.148 62.9114 78.1494C62.9098 78.1494 62.9084 78.1494 62.9068 78.1494Z" fill="white"/>
<path d="M75.8391 36.16C73.3803 36.16 70.4235 35.6307 68.9189 33.388C68.8183 33.2387 68.8579 33.036 69.0074 32.936C69.1585 32.836 69.3594 32.8747 69.4589 33.0254C72.0006 36.8134 79.6105 35.12 79.6881 35.1027C79.8626 35.0654 80.0375 35.1721 80.0787 35.3467C80.1189 35.5214 80.0089 35.6974 79.8339 35.7374C79.6818 35.772 77.9427 36.16 75.8391 36.16Z" fill="white"/>
<path d="M31.4913 151.177C31.3282 151.177 31.187 151.056 31.1684 150.889L30.3704 143.988C30.3496 143.809 30.4782 143.648 30.6569 143.628C30.8298 143.611 30.9974 143.735 31.0178 143.915L31.8152 150.815C31.8361 150.993 31.708 151.155 31.5288 151.176C31.5162 151.177 31.5037 151.177 31.4913 151.177Z" fill="white"/>
<path d="M27.939 154.628C27.7759 154.628 27.6348 154.505 27.6155 154.34L26.8182 147.439C26.7972 147.26 26.9254 147.099 27.1046 147.079C27.2702 147.064 27.4452 147.185 27.4655 147.364L28.263 154.265C28.2838 154.444 28.1556 154.605 27.9764 154.627C27.9639 154.628 27.952 154.628 27.939 154.628Z" fill="white"/>
<path d="M111.76 151.309C111.633 151.309 111.512 151.235 111.46 151.111C111.389 150.944 111.468 150.753 111.633 150.684L118.032 147.98C118.2 147.909 118.389 147.988 118.46 148.153C118.529 148.32 118.452 148.511 118.287 148.581L111.887 151.284C111.845 151.301 111.803 151.309 111.76 151.309Z" fill="white"/>
<path d="M115.607 153.749C115.48 153.749 115.36 153.675 115.307 153.551C115.237 153.385 115.315 153.195 115.48 153.124L121.88 150.421C122.047 150.352 122.236 150.429 122.307 150.595C122.376 150.76 122.299 150.951 122.133 151.021L115.733 153.724C115.692 153.741 115.649 153.749 115.607 153.749Z" fill="white"/>
<path d="M93.858 108.539C93.646 108.539 93.4381 108.589 93.234 108.689C91.3793 109.603 90.1736 114.373 89.7178 116.916C91.8173 115.287 95.6081 111.916 95.4948 109.919C95.4668 109.441 95.2074 109.071 94.7012 108.785C94.4089 108.621 94.1293 108.539 93.858 108.539ZM89.2657 117.989C89.208 117.989 89.149 117.973 89.097 117.943C88.985 117.875 88.9246 117.747 88.9433 117.617C88.9913 117.285 90.1418 109.485 92.946 108.105C93.6105 107.777 94.308 107.817 95.0214 108.219C95.7254 108.615 96.1041 109.175 96.1441 109.883C96.3174 112.915 89.737 117.724 89.4574 117.927C89.3996 117.968 89.3329 117.989 89.2657 117.989Z" fill="white"/>
<path d="M74.4747 57.4747C74.2991 57.4747 74.1543 57.336 74.1491 57.1587C74.1439 56.9787 74.2856 56.828 74.4657 56.824L84.4892 56.5334C84.6741 56.5334 84.8184 56.6734 84.8236 56.8494C84.8288 57.0307 84.6876 57.18 84.5075 57.1854L74.484 57.4747C74.4813 57.4747 74.4783 57.4747 74.4747 57.4747Z" fill="white"/>
<path d="M82.8792 8.76269C82.8792 8.76269 80.724 -0.698646 70.5459 1.05735C60.414 2.80535 62.8703 15.0147 62.8703 15.0147L67.085 13.9547L82.8792 8.76269Z" fill="#4B4E6D"/>
<path d="M85.8832 8.49067C85.8832 8.49067 82.3244 8.25867 72.7583 11.5573C69.4608 12.6933 66.5405 14.116 66.5405 14.116C66.5405 14.116 77.5056 10.772 81.5884 11.2387C83.1556 11.4187 84.1119 12.1094 84.1119 12.1094L85.8832 8.49067Z" fill="#4B4E6D"/>
<path d="M281.242 176.152H165.355V31.96H281.242V176.152Z" fill="#FFD2A6"/>
<path d="M248.077 176.152H161.299V31.96H248.077V176.152Z" fill="#FFE5CC"/>
<path d="M234.493 104.056C234.493 121.645 220.233 135.905 202.643 135.905C185.053 135.905 170.793 121.645 170.793 104.056C170.793 86.4654 185.053 72.2067 202.643 72.2067C220.233 72.2067 234.493 86.4654 234.493 104.056Z" fill="#BA91A8"/>
<path d="M189.528 119.144C189.528 119.144 189.2 147.152 192.621 147.9C196.044 148.648 195.904 138.904 195.904 138.904C195.904 138.904 195.664 155.379 201.065 156.127C206.467 156.875 207.511 134.436 207.511 134.436C207.511 134.436 208.759 140.912 211.567 140.031C214.373 139.151 212.513 119.144 212.513 119.144H189.528Z" fill="#68B6D8"/>
<path d="M224.596 104.056C224.596 116.18 214.767 126.008 202.643 126.008C190.519 126.008 180.691 116.18 180.691 104.056C180.691 91.932 190.519 82.1027 202.643 82.1027C214.767 82.1027 224.596 91.932 224.596 104.056Z" fill="#FFD2A6"/>
<path d="M248.078 165.475H161.299C161.119 165.475 160.974 165.329 160.974 165.149C160.974 164.969 161.119 164.824 161.299 164.824H248.078C248.258 164.824 248.403 164.969 248.403 165.149C248.403 165.329 248.258 165.475 248.078 165.475Z" fill="white"/>
<path d="M248.45 54.8694H161.299C161.119 54.8694 160.974 54.7241 160.974 54.5441C160.974 54.3641 161.119 54.2187 161.299 54.2187H248.45C248.63 54.2187 248.776 54.3641 248.776 54.5441C248.776 54.7241 248.63 54.8694 248.45 54.8694Z" fill="white"/>
<path d="M185.006 54.8694C184.827 54.8694 184.68 54.7241 184.68 54.5441V31.96C184.68 31.7814 184.827 31.6347 185.006 31.6347C185.186 31.6347 185.332 31.7814 185.332 31.96V54.5441C185.332 54.7241 185.186 54.8694 185.006 54.8694Z" fill="white"/>
<path d="M221.051 54.8694C220.871 54.8694 220.726 54.7241 220.726 54.5441V31.96C220.726 31.7814 220.871 31.6347 221.051 31.6347C221.231 31.6347 221.376 31.7814 221.376 31.96V54.5441C221.376 54.7241 221.231 54.8694 221.051 54.8694Z" fill="white"/>
<path d="M207.264 43.252C207.264 45.804 205.195 47.872 202.643 47.872C200.091 47.872 198.023 45.804 198.023 43.252C198.023 40.7 200.091 38.6307 202.643 38.6307C205.195 38.6307 207.264 40.7 207.264 43.252Z" fill="#BA91A8"/>
<path d="M179.885 47.872H166.72C165.609 47.872 164.709 46.972 164.709 45.8627V40.6413C164.709 39.5307 165.609 38.6307 166.72 38.6307H179.885C180.995 38.6307 181.895 39.5307 181.895 40.6413V45.8627C181.895 46.972 180.995 47.872 179.885 47.872Z" fill="#BA91A8"/>
<path d="M260.974 157.041H252.056V151.831H260.974V157.041Z" fill="#BA91A8"/>
<path d="M171.156 104.056C171.156 123.005 161.388 138.367 149.34 138.367C137.291 138.367 127.524 123.005 127.524 104.056C127.524 85.1067 137.291 69.7454 149.34 69.7454C161.388 69.7454 171.156 85.1067 171.156 104.056Z" fill="#FFD2A6"/>
<path d="M161.332 104.056C161.332 116.089 155.963 125.845 149.34 125.845C142.717 125.845 137.348 116.089 137.348 104.056C137.348 92.0213 142.717 82.2667 149.34 82.2667C155.963 82.2667 161.332 92.0213 161.332 104.056Z" fill="#A5C4F2"/>
<path d="M144.138 65.5507C144.138 65.5507 142.304 58.7494 139.44 61.356C136.578 63.9627 136.936 76.7107 140.874 77.484C144.811 78.2574 144.138 65.5507 144.138 65.5507Z" fill="#F48462"/>
<path d="M148.148 66.1761C148.148 66.1761 146.315 59.3747 143.452 61.9814C140.588 64.5881 140.947 77.3361 144.884 78.1094C148.821 78.8827 148.148 66.1761 148.148 66.1761Z" fill="#F48462"/>
<path d="M152.794 69.3493C153.064 67.7867 152.983 66.168 152.416 64.6853C151.912 63.364 151.046 62.2733 149.602 63.1933C146.711 65.036 145.102 76.204 148.419 77.472C150.89 78.4173 152.256 72.4533 152.794 69.3493Z" fill="#F48462"/>
<path d="M142.944 75.06C142.771 75.06 142.627 74.9227 142.619 74.748L142.181 64.36C142.173 64.18 142.313 64.028 142.493 64.02C142.677 64.028 142.825 64.152 142.832 64.332L143.271 74.72C143.277 74.9 143.139 75.052 142.959 75.06C142.953 75.06 142.949 75.06 142.944 75.06Z" fill="black"/>
<path d="M147.596 75.9174C147.405 75.912 147.264 75.7614 147.271 75.5814L147.629 64.6414C147.635 64.4627 147.787 64.3214 147.965 64.3267C148.145 64.3334 148.287 64.4827 148.28 64.6627L147.921 75.6027C147.916 75.7787 147.771 75.9174 147.596 75.9174Z" fill="black"/>
<path d="M88.6063 102.803L87.5954 101.895C86.8918 101.265 86.8334 100.184 87.4641 99.4814L106.491 78.2734L110.047 81.4627L91.0203 102.671C90.3897 103.375 89.3085 103.433 88.6063 102.803Z" fill="#BA91A8"/>
<path d="M104.999 83.512L111.165 81.496L117.331 79.48L112.501 75.148L107.673 70.816L106.336 77.164L104.999 83.512Z" fill="#BA91A8"/>
<path d="M117.331 79.48C117.003 79.8467 114.575 78.2027 111.908 75.8107C109.242 73.4187 107.346 71.1827 107.674 70.816C108.002 70.4507 110.43 72.0933 113.096 74.4853C115.763 76.8787 117.66 79.1147 117.331 79.48Z" fill="#DDD7E0"/>
<path d="M99.9173 87.3334C99.8399 87.3334 99.7613 87.3054 99.6999 87.2507C99.5653 87.1307 99.5546 86.924 99.6746 86.7907L104.792 81.0867C104.912 80.9534 105.119 80.9427 105.252 81.0627C105.387 81.1827 105.397 81.388 105.277 81.5227L100.16 87.2254C100.096 87.2974 100.007 87.3334 99.9173 87.3334Z" fill="white"/>
<path d="M85.8238 87.2853C85.8238 87.2853 89.2534 82.3507 95.823 82.3787C97.8336 82.3867 101.18 84.156 101.18 84.156L99.1816 86.936C99.1816 86.936 106.063 89.372 108.771 90.756C111.01 91.9013 112.939 94.5773 107.36 95.7747C106.228 96.016 103.972 104.368 100.434 105.291C96.895 106.213 85.9664 99.5187 84.0024 94.4013C82.0378 89.2853 85.8238 87.2853 85.8238 87.2853Z" fill="#F48462"/>
<path d="M99.1812 87.2614C99.1505 87.2614 99.1199 87.2574 99.0892 87.248L95.0827 86.0747C94.9097 86.024 94.8113 85.8427 94.8619 85.6694C94.9119 85.4974 95.0884 85.3947 95.266 85.4494L99.2732 86.6227C99.4452 86.6733 99.5439 86.8547 99.4932 87.028C99.4519 87.1694 99.3225 87.2614 99.1812 87.2614Z" fill="black"/>
<path d="M107.36 96.1H105.243C105.063 96.1 104.917 95.9534 104.917 95.7747C104.917 95.5947 105.063 95.4481 105.243 95.4481H107.36C107.539 95.4481 107.685 95.5947 107.685 95.7747C107.685 95.9534 107.539 96.1 107.36 96.1Z" fill="black"/>
<path d="M171.153 116.297C170.541 116.297 170.045 115.801 170.045 115.189V92.9227C170.045 92.3107 170.541 91.8147 171.153 91.8147C171.765 91.8147 172.261 92.3107 172.261 92.9227V115.189C172.261 115.801 171.765 116.297 171.153 116.297Z" fill="#A87E98"/>
<path d="M207.264 177.384C207.264 177.384 183.854 176.776 185.007 179.164C186.16 181.553 194.195 181.335 194.195 181.335C194.195 181.335 174.203 178.947 175.73 183.073C177.256 187.199 224.814 187.199 230.894 184.809C236.974 182.421 218.734 181.119 218.734 181.119C218.734 181.119 222.034 177.733 207.264 177.384Z" fill="#68B6D8"/>
<path d="M170.563 161.191C170.563 161.191 169.652 171.901 171.204 172.297C172.755 172.693 173.247 168.119 173.247 168.119C173.247 168.119 172.825 179.637 175.977 180.215C179.131 180.792 178.327 160.996 178.327 160.996C178.327 160.996 173.397 159.555 170.563 161.191Z" fill="#68B6D8"/>
<path d="M182.818 161.095H168.642C167.434 161.095 166.454 160.115 166.454 158.907V149.98C166.454 148.771 167.434 147.791 168.642 147.791H182.818C184.027 147.791 185.007 148.771 185.007 149.98V158.907C185.007 160.115 184.027 161.095 182.818 161.095Z" fill="#BA91A8"/>
<path d="M135.648 77.8427C135.563 77.8427 135.477 77.8094 135.413 77.7427C133.256 75.5 135.133 71.144 135.8 69.788C134.792 69.588 132.471 68.92 132.279 67.0067C132.233 66.5494 132.369 66.1347 132.684 65.776C133.844 64.452 137.195 64.3307 137.337 64.3267C137.523 64.3267 137.667 64.4654 137.673 64.6414C137.679 64.8214 137.537 64.972 137.359 64.9774C136.468 65.0067 133.981 65.2827 133.173 66.2054C132.98 66.4267 132.9 66.6667 132.927 66.9414C133.115 68.824 136.3 69.2121 136.332 69.2161C136.44 69.2281 136.533 69.2934 136.584 69.3907C136.633 69.4867 136.632 69.6014 136.58 69.6974C136.551 69.7494 133.693 75.0147 135.883 77.292C136.007 77.4214 136.003 77.628 135.873 77.752C135.811 77.8134 135.729 77.8427 135.648 77.8427Z" fill="black"/>
</svg>
